<svg id="Layer_1" data-name="Layer 1" xmlns="http://www.w3.org/2000/svg" viewBox="0 0 1400 251.21"><defs><style>.cls-1{fill:#00a19b;}.cls-2{fill:#898a8d;}.cls-3{fill:#76777a;}</style></defs><path class="cls-1" d="M154,151.15c-22.77,10.25-45.27,18.32-65.31,23.52V119.41a455.46,455.46,0,0,1,41.47-21.2c12.05-5.43,24-10.23,35.59-14.34v61.8Q160,148.46,154,151.15Zm82.87-82.94a125.74,125.74,0,0,0-20.46,2A284,284,0,0,0,176,80.39v60.19c22.1-11.33,41.58-23.57,56.19-35.41C252.42,88.79,257.33,78,255.4,73.67h0C254.09,70.76,248.43,68.21,236.91,68.21ZM88.73,107.63c11.62-6.52,24.16-12.84,37.27-18.75,13.48-6.07,26.88-11.39,39.79-15.84V8.27L152.26,2.18a24.62,24.62,0,0,0-20.27,0L88.73,21.66Zm181-52.57L176,12.87V69.66a289.67,289.67,0,0,1,38.75-9.6c28.22-4.7,45-1.53,50,9.41s-3.85,25.63-26.08,43.65c-16.17,13.1-38,26.63-62.63,38.93v56.57l61-27.47a5.12,5.12,0,1,1,4.2,9.33L173,221.19l-.05,0a5.1,5.1,0,0,1-.78.26l-.23.07a3.27,3.27,0,0,1-.45,0,4,4,0,0,1-.59.07,4.71,4.71,0,0,1-.92-.1l-.24-.05a5.05,5.05,0,0,1-.69-.22l-.19-.06a5.19,5.19,0,0,1-.77-.42l-.15-.11a6.22,6.22,0,0,1-.56-.46l-.17-.17a6.47,6.47,0,0,1-.47-.57,1.47,1.47,0,0,0-.1-.13,4.68,4.68,0,0,1-.4-.73l0,0A5.27,5.27,0,0,1,166,218c0-.14-.1-.28-.13-.42s0-.25,0-.38a4.64,4.64,0,0,1-.07-.64V157c-2.5,1.18-5,2.34-7.55,3.49C134,171.39,110,179.91,88.73,185.23v44.32L132,249a24.7,24.7,0,0,0,20.27,0L269.7,196.15a24.69,24.69,0,0,0,14.54-22.51V77.56A24.67,24.67,0,0,0,269.7,55.06ZM28.85,175.68c1.93,4.29,13.28,7.79,38.95,3.52,3.44-.58,7-1.28,10.7-2.08V125.56A264.52,264.52,0,0,0,52,144.19C31.83,160.57,26.91,171.39,28.85,175.68Zm49.65,11.9c-3.08.65-6.1,1.22-9,1.71a137.3,137.3,0,0,1-22.26,2.11c-15,0-24.25-3.85-27.7-11.52-4.93-10.94,3.84-25.62,26.07-43.64A289.85,289.85,0,0,1,78.5,113.57V26.26L14.55,55.06A24.66,24.66,0,0,0,0,77.56v96.08a24.68,24.68,0,0,0,14.55,22.51l64,28.79Z"/><path class="cls-2" d="M409.25,66h16.87a4.24,4.24,0,0,1,4.17,2.28l53.64,108.42a3.8,3.8,0,0,1,.38,1.71,4.27,4.27,0,0,1-3,4.35,6.49,6.49,0,0,1-2.09.38q-3.22,0-4.36-2.46l-17.62-35.63h-63.5l-17.63,35.63q-1.71,3.79-6.44,2.08a4.15,4.15,0,0,1-3-4.16,4.71,4.71,0,0,1,.38-1.71l50.42-102h-8.15a4.21,4.21,0,0,1-4.36-4.36,4.58,4.58,0,0,1,1.23-3.22A4.11,4.11,0,0,1,409.25,66Zm16.11,13.46-27.48,56.87H453ZM604.1,129v39.81q0,3.6,5.12,3.6h7.39a4.07,4.07,0,0,1,3.13,1.33,4.56,4.56,0,0,1,1.23,3.22,4.21,4.21,0,0,1-4.36,4.36h-7.39q-15.35,0-15.35-12.32V129q0-11.75-11-11.75-14.77,0-24.45,16.49v45.11a3.85,3.85,0,0,1-1.51,3.13,5.9,5.9,0,0,1-7.21,0,3.85,3.85,0,0,1-1.51-3.13V129q0-11.75-11-11.75a23.15,23.15,0,0,0-14.31,4.36q-5.77,4.37-11.09,13.65v43.59a3.85,3.85,0,0,1-1.51,3.13,5.9,5.9,0,0,1-7.21,0,3.85,3.85,0,0,1-1.51-3.13V122.9q0-3.6-3.6-3.6h-8.91a4.22,4.22,0,0,1-4.36-4.36,4.6,4.6,0,0,1,1.23-3.23,4.09,4.09,0,0,1,3.13-1.32h10.23q11.76,0,11.76,12.89a44.89,44.89,0,0,1,11.84-11.19,27.6,27.6,0,0,1,14.5-3.6q16.3,0,20.1,13.65A44.66,44.66,0,0,1,569,111.9q5.87-3.41,14.78-3.41t14.6,5.22Q604.11,118.92,604.1,129Zm44.74-5.11q9.85-15.36,26.25-15.36t25,10.52q8.63,10.53,8.62,26.63t-8.81,26.83q-8.82,10.71-24.45,10.7t-25.88-10.8v48a3.84,3.84,0,0,1-1.51,3.12,5.85,5.85,0,0,1-7.2,0,3.83,3.83,0,0,1-1.52-3.12V122.9q0-3.6-3.6-3.6h-8.91a4.22,4.22,0,0,1-4.36-4.36,4.6,4.6,0,0,1,1.23-3.23,4.09,4.09,0,0,1,3.13-1.32h10.23Q649.21,110.39,648.84,123.85Zm.75,39.23q12.13,11.37,24.27,11.38t18.48-8q6.35-8,6.35-21t-6.26-20.66q-6.25-7.58-17.25-7.58-16.11,0-25.59,18Zm96.29,9.29h7.39a4.06,4.06,0,0,1,3.13,1.33,4.56,4.56,0,0,1,1.23,3.22,4.21,4.21,0,0,1-4.36,4.36h-7.39q-15.35,0-15.35-12.32V48H718a4.21,4.21,0,0,1-4.36-4.36,4.56,4.56,0,0,1,1.23-3.22A4.07,4.07,0,0,1,718,39.12h17.63a5.28,5.28,0,0,1,3.6,1.33,4.12,4.12,0,0,1,1.51,3.22v125.1Q740.76,172.37,745.88,172.37ZM788,178.81a3.85,3.85,0,0,1-1.51,3.13,5.9,5.9,0,0,1-7.21,0,3.85,3.85,0,0,1-1.51-3.13V119.3H765.22a4.22,4.22,0,0,1-4.36-4.36,4.6,4.6,0,0,1,1.23-3.23,4.09,4.09,0,0,1,3.13-1.32H783.6q4.36,0,4.36,4.36ZM777.35,82a6.91,6.91,0,0,1,0-9.1,6,6,0,0,1,4.74-1.9,6.45,6.45,0,1,1,0,12.89A6,6,0,0,1,777.35,82Zm28.81,142.16a14.1,14.1,0,0,1-3.61.57,4.07,4.07,0,0,1-4-4.18c0-2.27,1.46-3.79,4.36-4.54q9.86-3,13.65-11.28t3.79-22.27V119.3H808.81a4.22,4.22,0,0,1-4.36-4.36,4.6,4.6,0,0,1,1.23-3.23,4.1,4.1,0,0,1,3.13-1.32h11.56V67.55q0-16.48,6.92-23.41t21.32-6.92q14.42,0,24.65,6.26a3.9,3.9,0,0,1,2.27,3.41v16.3A3.86,3.86,0,0,1,874,66.32a5.88,5.88,0,0,1-7.2,0,3.86,3.86,0,0,1-1.52-3.13V49q-6.63-3-16.49-3t-14.12,5q-4.26,5-4.26,16.77v42.65h33a4.12,4.12,0,0,1,3.13,1.32,4.6,4.6,0,0,1,1.23,3.23,4.22,4.22,0,0,1-4.36,4.36h-33v63.12q0,16.86-5.12,26.91T806.16,224.12Zm61.6-8.72,6.06.57q9.28,0,15.17-7.78,4.54-5.87,10-17.24l6.45-13.27-30.9-62.55a3.82,3.82,0,0,1,.1-3.42,5.48,5.48,0,0,1,2.65-2.55,8.34,8.34,0,0,1,3.6-.86c1.2,0,2.24,1,3.13,2.85l26.72,56.1,26.73-56.1c.88-1.9,1.9-2.85,3-2.85,3,0,5.12,1.14,6.26,3.41a5,5,0,0,1,.38,1.81,3.63,3.63,0,0,1-.38,1.61l-38.67,79.61q-3.6,7.57-5.78,11.28a86.13,86.13,0,0,1-6.35,9q-8.14,9.66-22.37,9.67a24.42,24.42,0,0,1-6.06-.57q-4.17-1-3.6-4.84T867.76,215.4Z"/><path class="cls-3" d="M966.32,54.28a41.33,41.33,0,0,1,4.74-.38q11.75,0,11.75,11.94v42.27h60.28V54.28a41.33,41.33,0,0,1,4.74-.38q11.75,0,11.75,11.94V181.28h-16.49V122.52H982.81v58.76H966.32Zm229,62.93q0,31.1-14.4,49t-41,17.91q-17.43,0-29.47-8.05t-18.29-23.22q-6.26-15.16-6.26-35.45,0-19.91,6.83-34.88t19.33-22.74Q1124.59,52,1141.65,52q17.25,0,29.19,7.86T1189,82.43Q1195.3,97.12,1195.29,117.21Zm-17.25.19q0-24.63-9.38-37.72T1141.27,66.6q-18.57,0-28.24,13t-9.67,37.81q0,25,9.57,38.57t27.77,13.56q18.19,0,27.77-13.65T1178,117.4Zm43.6-62.55a296.31,296.31,0,0,1,29.95-1.7q25.4,0,37.81,9.09t12.42,27.87q0,21-12.8,31.75t-37.43,10.71h-13.46v48.71h-16.49Zm23.88,63.88q14.79,0,23-2.66t12.23-8.71q4-6.08,4-16.31,0-12.12-7.87-18.1t-24-6a113.49,113.49,0,0,0-15,.76v51Zm78.09-64.26h73.17a20.51,20.51,0,0,1,.38,4q0,10.24-11.57,10.24H1340.1v39h43v14.6h-43v44.73h48.15q5.68,0,8.72,2.66c2,1.77,3,4.29,3,7.58,0,1.26-.07,2.59-.19,4h-76.2Z"/></svg>