<?xml version="1.0" encoding="UTF-8"?>
<svg id="Layer_1" data-name="Layer 1" xmlns="http://www.w3.org/2000/svg" viewBox="0 0 1400 251.21">
  <defs>
    <style>
      .cls-1 {
        fill: #fff;
      }
    </style>
  </defs>
  <path class="cls-1" d="M154.04,151.15c-22.77,10.25-45.27,18.33-65.31,23.52v-55.27c12.71-7.37,26.71-14.55,41.48-21.2,12.04-5.42,24.01-10.23,35.58-14.33v61.8c-3.85,1.86-7.77,3.69-11.75,5.48Zm82.87-82.93c-5.45,0-12.22,.57-20.47,1.94-12.19,2.03-25.9,5.52-40.43,10.23v60.19c22.1-11.33,41.58-23.57,56.19-35.41,20.21-16.38,25.12-27.2,23.19-31.5h0c-1.31-2.91-6.97-5.46-18.48-5.46ZM88.73,107.63c11.62-6.52,24.16-12.85,37.28-18.75,13.48-6.07,26.88-11.39,39.78-15.84V8.27l-13.53-6.09c-6.44-2.9-13.82-2.9-20.27,0l-43.26,19.48V107.63Zm180.97-52.58L176.02,12.87v56.79c13.86-4.37,26.98-7.64,38.75-9.6,28.22-4.7,45.04-1.54,49.96,9.41,4.93,10.94-3.85,25.63-26.07,43.64-16.17,13.11-37.98,26.63-62.64,38.93v56.57l61-27.46c2.58-1.16,5.6-.01,6.76,2.56,1.16,2.58,.01,5.61-2.56,6.76l-68.21,30.71s-.03,0-.05,.02c-.25,.11-.51,.19-.78,.26-.08,.02-.15,.06-.23,.07-.15,.03-.3,.03-.45,.05-.2,.02-.39,.06-.59,.06-.31,0-.62-.04-.93-.1-.08-.01-.16-.03-.24-.05-.24-.06-.47-.13-.69-.21-.06-.02-.12-.04-.18-.07-.27-.12-.53-.26-.78-.42-.05-.03-.1-.07-.15-.11-.2-.14-.38-.29-.56-.46-.06-.05-.11-.11-.17-.17-.17-.18-.33-.37-.47-.57-.03-.05-.07-.09-.1-.13-.15-.23-.29-.47-.4-.72,0-.02,0-.03-.02-.05-.08-.18-.13-.37-.19-.56-.04-.14-.1-.28-.13-.42-.03-.12-.03-.25-.05-.38-.03-.22-.06-.43-.07-.65,0-.02,0-.03,0-.05v-59.54c-2.49,1.17-5,2.34-7.54,3.48-24.24,10.91-48.25,19.43-69.52,24.75v44.32l43.26,19.48c6.44,2.9,13.82,2.9,20.27,0l117.44-52.88c8.85-3.99,14.55-12.8,14.55-22.51V77.56c0-9.71-5.69-18.52-14.55-22.51ZM28.85,175.68c1.93,4.29,13.29,7.79,38.95,3.52,3.45-.57,7.02-1.28,10.7-2.08v-51.56c-9.92,6.19-18.86,12.46-26.46,18.63-20.21,16.38-25.12,27.2-23.19,31.49Zm49.65,11.9c-3.08,.64-6.09,1.22-9.02,1.71-8.45,1.41-15.87,2.11-22.26,2.11-14.96,0-24.25-3.85-27.7-11.52-4.93-10.94,3.85-25.63,26.07-43.64,9.28-7.52,20.44-15.18,32.9-22.67V26.26L14.55,55.06C5.69,59.04,0,67.85,0,77.56v96.08c0,9.71,5.69,18.52,14.55,22.51l63.95,28.79v-37.36ZM406.12,67.36c-.82,.89-1.23,1.96-1.23,3.22s.41,2.31,1.23,3.13c.82,.82,1.86,1.23,3.13,1.23h8.15l-50.42,101.98c-.25,.63-.38,1.2-.38,1.71,0,2.02,1.01,3.41,3.03,4.17,3.16,1.14,5.31,.44,6.45-2.08l17.63-35.63h63.5l17.63,35.63c.76,1.64,2.21,2.46,4.36,2.46,.63,0,1.33-.13,2.08-.38,2.02-.76,3.03-2.21,3.03-4.36,0-.63-.13-1.2-.38-1.71l-53.64-108.42c-.76-1.52-2.15-2.27-4.17-2.27h-16.87c-1.26,0-2.31,.44-3.13,1.33Zm46.91,68.99h-55.16l27.49-56.86,27.67,56.86Zm145.38-22.65c-3.79-3.47-8.66-5.21-14.59-5.21s-10.87,1.14-14.79,3.41c-3.92,2.27-7.77,5.69-11.56,10.24-2.53-9.1-9.23-13.65-20.09-13.65-5.69,0-10.52,1.2-14.5,3.6-3.98,2.4-7.93,6.13-11.85,11.18,0-8.59-3.92-12.89-11.75-12.89h-10.24c-1.27,0-2.31,.44-3.13,1.33-.82,.89-1.23,1.96-1.23,3.22s.41,2.31,1.23,3.13c.82,.82,1.86,1.23,3.13,1.23h8.91c2.4,0,3.6,1.2,3.6,3.6v55.92c0,1.27,.5,2.31,1.52,3.13,1.01,.82,2.21,1.23,3.6,1.23s2.59-.41,3.6-1.23c1.01-.82,1.52-1.86,1.52-3.13v-43.6c3.54-6.19,7.23-10.74,11.09-13.65,3.85-2.91,8.62-4.36,14.31-4.36,7.33,0,10.99,3.92,10.99,11.75v49.85c0,1.27,.5,2.31,1.52,3.13,1.01,.82,2.21,1.23,3.6,1.23s2.59-.41,3.6-1.23c1.01-.82,1.52-1.86,1.52-3.13v-45.11c6.45-10.99,14.6-16.49,24.45-16.49,7.33,0,10.99,3.92,10.99,11.75v39.99c0,8.22,5.12,12.32,15.35,12.32h7.39c1.26,0,2.3-.41,3.13-1.23,.82-.82,1.23-1.86,1.23-3.13s-.41-2.34-1.23-3.22c-.82-.88-1.87-1.33-3.13-1.33h-7.39c-3.41,0-5.12-1.2-5.12-3.6v-39.81c0-6.7-1.9-11.78-5.69-15.26Zm38.67-3.32h-10.24c-1.26,0-2.31,.44-3.13,1.33-.82,.89-1.23,1.96-1.23,3.22s.41,2.31,1.23,3.13c.82,.82,1.86,1.23,3.13,1.23h8.91c2.4,0,3.6,1.2,3.6,3.6v97.43c0,1.26,.5,2.3,1.52,3.13,1.01,.82,2.21,1.23,3.6,1.23s2.59-.41,3.6-1.23c1.01-.82,1.52-1.87,1.52-3.13v-47.96c6.82,7.2,15.45,10.8,25.87,10.8s18.58-3.57,24.45-10.71c5.88-7.14,8.81-16.08,8.81-26.82s-2.88-19.62-8.62-26.63c-5.75-7.01-14.09-10.52-25.02-10.52s-19.68,5.12-26.25,15.35c.25-8.97-3.67-13.46-11.75-13.46Zm12.51,24.83c6.32-12,14.85-18.01,25.59-18.01,7.33,0,13.08,2.53,17.25,7.58,4.17,5.06,6.25,11.94,6.25,20.66s-2.12,15.73-6.35,21.04c-4.23,5.31-10.39,7.96-18.48,7.96s-16.18-3.79-24.26-11.37v-27.86Zm91.17,33.55V43.67c0-1.26-.51-2.34-1.52-3.22-1.01-.88-2.21-1.33-3.6-1.33h-17.63c-1.26,0-2.3,.44-3.13,1.33-.82,.89-1.23,1.96-1.23,3.22s.41,2.31,1.23,3.13c.82,.82,1.87,1.23,3.13,1.23h12.51v120.93c0,8.22,5.12,12.32,15.35,12.32h7.39c1.26,0,2.3-.41,3.13-1.23,.82-.82,1.23-1.86,1.23-3.13s-.41-2.34-1.23-3.22c-.82-.88-1.87-1.33-3.13-1.33h-7.39c-3.41,0-5.12-1.2-5.12-3.6Zm47.2-54.02c0-2.91-1.45-4.36-4.36-4.36h-18.39c-1.26,0-2.31,.44-3.13,1.33-.82,.89-1.23,1.96-1.23,3.22s.41,2.31,1.23,3.13c.82,.82,1.86,1.23,3.13,1.23h12.51v59.52c0,1.27,.5,2.31,1.52,3.13,1.01,.82,2.21,1.23,3.6,1.23s2.59-.41,3.6-1.23c1.01-.82,1.52-1.86,1.52-3.13V114.75Zm-5.88-30.9c2.02,0,3.63-.63,4.83-1.9,1.2-1.26,1.8-2.78,1.8-4.55s-.6-3.28-1.8-4.55c-1.2-1.26-2.81-1.9-4.83-1.9s-3.6,.63-4.74,1.9c-1.14,1.26-1.71,2.78-1.71,4.55s.57,3.29,1.71,4.55c1.14,1.26,2.72,1.9,4.74,1.9Zm43.21,125.48c3.41-6.7,5.12-15.67,5.12-26.92v-63.12h32.98c1.26,0,2.3-.41,3.13-1.23,.82-.82,1.23-1.86,1.23-3.13s-.41-2.34-1.23-3.22c-.82-.88-1.87-1.33-3.13-1.33h-32.98v-42.65c0-7.83,1.42-13.43,4.26-16.77,2.84-3.35,7.55-5.02,14.12-5.02s12.07,1.01,16.49,3.03v14.22c0,1.26,.5,2.31,1.52,3.13,1.01,.82,2.21,1.23,3.6,1.23s2.59-.41,3.6-1.23c1.01-.82,1.52-1.86,1.52-3.13v-16.3c0-1.39-.76-2.53-2.28-3.41-6.82-4.17-15.04-6.26-24.64-6.26s-16.71,2.31-21.32,6.92c-4.61,4.61-6.92,12.42-6.92,23.41v42.84h-11.56c-1.26,0-2.31,.44-3.13,1.33-.82,.89-1.23,1.96-1.23,3.22s.41,2.31,1.23,3.13c.82,.82,1.86,1.23,3.13,1.23h11.56v63.12c0,9.35-1.26,16.77-3.79,22.27-2.53,5.5-7.08,9.25-13.65,11.28-2.9,.76-4.36,2.27-4.36,4.55,0,1.26,.41,2.28,1.23,3.03,.82,.76,1.74,1.14,2.75,1.14s2.21-.19,3.6-.57c9.35-3.16,15.73-8.09,19.14-14.79Zm38.67,9.95c-.38,2.59,.82,4.2,3.6,4.83,1.39,.38,3.41,.57,6.07,.57,9.48,0,16.93-3.22,22.37-9.67,2.78-3.54,4.9-6.54,6.35-9,1.45-2.46,3.38-6.23,5.78-11.28l38.67-79.61c.25-.5,.38-1.04,.38-1.61s-.13-1.17-.38-1.8c-1.14-2.27-3.22-3.41-6.25-3.41-1.14,0-2.15,.95-3.03,2.84l-26.73,56.11-26.73-56.11c-.89-1.9-1.93-2.84-3.13-2.84s-2.4,.28-3.6,.85c-1.2,.57-2.08,1.42-2.65,2.56-.57,1.14-.6,2.27-.1,3.41l30.9,62.55-6.44,13.27c-3.67,7.58-7.01,13.33-10.05,17.25-3.92,5.18-8.97,7.77-15.16,7.77l-6.07-.57c-2.15,0-3.41,1.29-3.79,3.89Zm102.35-38h16.49v-58.76h60.28v58.76h16.49V65.84c0-7.96-3.92-11.94-11.75-11.94-1.14,0-2.72,.13-4.74,.38v53.83h-60.28v-42.27c0-7.96-3.92-11.94-11.75-11.94-1.14,0-2.72,.13-4.74,.38v127Zm222.72-98.85c-4.17-9.79-10.24-17.31-18.2-22.56-7.96-5.24-17.69-7.87-29.19-7.87s-21.23,2.59-29.57,7.77c-8.34,5.18-14.78,12.77-19.33,22.75-4.55,9.98-6.82,21.61-6.82,34.88s2.08,25.34,6.25,35.45c4.17,10.11,10.27,17.85,18.29,23.22,8.02,5.37,17.85,8.06,29.47,8.06,17.69,0,31.34-5.97,40.94-17.91,9.6-11.94,14.41-28.27,14.41-49,0-13.39-2.08-24.99-6.25-34.78Zm-20.57,73.45c-6.38,9.1-15.64,13.65-27.77,13.65s-21.39-4.52-27.77-13.55c-6.38-9.03-9.57-21.89-9.57-38.57s3.22-29.16,9.67-37.81c6.44-8.65,15.86-12.98,28.24-12.98s21.13,4.36,27.39,13.08c6.25,8.72,9.38,21.29,9.38,37.72s-3.19,29.38-9.57,38.48Zm53.17,25.4h16.49v-48.71h13.46c16.43,0,28.91-3.57,37.44-10.71,8.53-7.14,12.79-17.72,12.79-31.75,0-12.51-4.14-21.8-12.42-27.86-8.28-6.07-20.88-9.1-37.81-9.1-8.85,0-18.83,.57-29.95,1.71v126.43Zm16.3-62.55v-50.99c3.54-.5,8.53-.76,14.97-.76,10.74,0,18.73,1.99,23.98,5.97,5.24,3.98,7.87,10.02,7.87,18.1,0,6.82-1.33,12.26-3.98,16.3-2.65,4.05-6.73,6.95-12.23,8.72-5.5,1.77-13.17,2.65-23.03,2.65h-7.58Zm85.67,62.55h76.2c.12-1.39,.19-2.72,.19-3.98,0-3.28-1.01-5.81-3.03-7.58-2.02-1.77-4.93-2.65-8.72-2.65h-48.14v-44.73h43.03v-14.59h-43.03v-39.05h45.49c7.71,0,11.56-3.41,11.56-10.24,0-1.39-.13-2.72-.38-3.98h-73.17v126.81Z"/>
</svg>