<?xml version="1.0" standalone="no"?>
<!DOCTYPE svg PUBLIC "-//W3C//DTD SVG 20010904//EN"
 "http://www.w3.org/TR/2001/REC-SVG-20010904/DTD/svg10.dtd">
<svg version="1.0" xmlns="http://www.w3.org/2000/svg"
 width="566.000000pt" height="566.000000pt" viewBox="0 0 566.000000 566.000000"
 preserveAspectRatio="xMidYMid meet">
<metadata>
Created by potrace 1.14, written by Peter Selinger 2001-2017
</metadata>
<g transform="translate(0.000000,566.000000) scale(0.100000,-0.100000)"
fill="#000000" stroke="none">
<path d="M2700 5311 c-36 -10 -74 -23 -85 -29 -11 -6 -65 -31 -120 -56 -55
-24 -126 -56 -158 -70 -31 -14 -58 -25 -60 -24 -1 2 -13 -5 -27 -15 -13 -9
-32 -17 -41 -17 -9 0 -22 -6 -28 -14 -7 -8 -23 -17 -37 -20 -14 -4 -53 -20
-87 -36 -153 -71 -239 -110 -243 -110 -2 0 -45 -20 -97 -44 -52 -24 -103 -47
-115 -50 -12 -4 -22 -11 -22 -15 0 -4 -6 -8 -14 -8 -7 0 -51 -17 -97 -38 -106
-48 -176 -80 -258 -117 -36 -16 -79 -35 -95 -43 -17 -7 -57 -25 -89 -39 -31
-14 -81 -37 -110 -50 -28 -13 -142 -64 -252 -114 -196 -87 -233 -104 -365
-164 -66 -30 -140 -84 -173 -125 -10 -13 -24 -29 -32 -36 -23 -23 -65 -115
-80 -175 -13 -50 -15 -205 -12 -1093 1 -568 6 -1044 9 -1057 34 -114 129 -243
211 -287 20 -11 37 -23 37 -27 0 -5 6 -8 13 -8 7 0 31 -9 53 -19 21 -10 86
-40 144 -66 58 -26 130 -58 160 -72 30 -14 93 -42 140 -63 47 -21 110 -49 140
-63 30 -13 78 -35 105 -47 28 -12 75 -33 105 -47 30 -14 96 -43 145 -65 50
-23 95 -45 101 -49 6 -5 14 -6 17 -2 4 3 7 1 7 -5 0 -7 3 -11 8 -10 4 1 18 -4
32 -9 47 -20 115 -51 195 -87 44 -20 89 -41 100 -45 11 -5 49 -22 85 -39 36
-16 81 -37 101 -45 44 -20 150 -68 209 -95 107 -49 359 -161 410 -183 30 -12
64 -28 75 -35 72 -44 239 -66 331 -43 42 10 195 75 391 165 47 22 100 45 113
49 3 1 45 20 93 43 49 23 91 42 93 42 2 0 32 13 66 29 183 85 354 161 365 161
7 0 13 5 13 10 0 6 6 10 13 10 7 0 82 32 167 71 85 38 169 76 185 84 17 7 107
48 200 90 94 43 229 103 300 135 72 32 162 72 200 90 39 17 84 38 100 45 127
56 191 89 227 116 79 59 150 159 174 244 1 6 7 26 13 45 12 38 11 2098 -1
2135 -48 154 -133 255 -272 323 -115 58 -171 82 -184 82 -7 0 -12 5 -12 10 0
6 -7 10 -15 10 -8 0 -30 9 -50 20 -19 11 -35 17 -35 14 0 -4 -6 -2 -12 4 -7 5
-94 46 -193 90 -285 127 -297 132 -350 157 -27 13 -77 35 -110 50 -33 15 -73
33 -90 40 -16 8 -69 32 -118 54 -48 23 -89 41 -91 41 -3 0 -83 35 -178 79 -95
43 -195 88 -223 101 -27 12 -68 30 -90 40 -22 10 -62 28 -90 40 -27 12 -75 33
-105 47 -30 14 -100 45 -155 70 -55 25 -129 58 -165 75 -72 33 -107 48 -130
54 -8 2 -33 8 -55 13 -60 15 -152 12 -225 -8z"/>
</g>
</svg>
